<?xml version="1.0" encoding="utf-8" standalone="no"?>
<!DOCTYPE svg PUBLIC "-//W3C//DTD SVG 1.1//EN"
  "http://www.w3.org/Graphics/SVG/1.1/DTD/svg11.dtd">
<!-- Created with matplotlib (https://matplotlib.org/) -->
<svg height="355.987578pt" version="1.1" viewBox="0 0 576 355.987578" width="576pt" xmlns="http://www.w3.org/2000/svg" xmlns:xlink="http://www.w3.org/1999/xlink">
 <defs>
  <style type="text/css">
*{stroke-linecap:butt;stroke-linejoin:round;}
  </style>
 </defs>
 <g id="figure_1">
  <g id="patch_1">
   <path d="M 0 355.987578 
L 576 355.987578 
L 576 0 
L 0 0 
z
" style="fill:#ffffff;"/>
  </g>
  <g id="axes_1">
   <g id="patch_2">
    <path d="M 81.357094 292.231953 
L 556.56 292.231953 
L 556.56 25.607813 
L 81.357094 25.607813 
z
" style="fill:#ffffff;"/>
   </g>
   <g id="matplotlib.axis_1">
    <g id="xtick_1">
     <g id="line2d_1">
      <defs>
       <path d="M 0 0 
L 0 -8 
" id="md24c63e79d" style="stroke:#222222;"/>
      </defs>
      <g>
       <use style="fill:#222222;stroke:#222222;" x="102.957226" xlink:href="#md24c63e79d" y="292.231953"/>
      </g>
     </g>
     <g id="line2d_2">
      <defs>
       <path d="M 0 0 
L 0 8 
" id="m3a838af94f" style="stroke:#222222;"/>
      </defs>
      <g>
       <use style="fill:#222222;stroke:#222222;" x="102.957226" xlink:href="#m3a838af94f" y="25.607813"/>
      </g>
     </g>
     <g id="text_1">
      <!-- 40 -->
      <defs>
       <path d="M 37.40625 62.90625 
C 36.59375 62.90625 35 61.203125 34.40625 60.40625 
L 2.59375 18.796875 
C 2.59375 18.203125 2.90625 17.40625 3.59375 17 
L 31.09375 17 
L 31.09375 0.203125 
C 31.09375 -0.5 32.296875 -0.59375 34.59375 -0.59375 
C 38.40625 -0.59375 38.796875 -0.09375 38.796875 -0.09375 
L 38.796875 17 
L 45.59375 17 
C 45.796875 17.296875 45.90625 17.703125 45.90625 18.59375 
C 45.90625 20.703125 45.203125 22.59375 44.59375 22.59375 
L 38.796875 22.59375 
L 38.796875 61.09375 
C 38.796875 61.90625 38.40625 62.90625 37.40625 62.90625 
z
M 31.09375 51.203125 
L 31.09375 22.59375 
L 9.203125 22.59375 
z
" id="Cochineal-Roman-52"/>
       <path d="M 24.90625 59 
C 32.09375 59 37 47 37 31.703125 
C 37 16.40625 32.59375 3.296875 23.90625 3.296875 
C 16.703125 3.296875 11.59375 15.90625 11.59375 31.203125 
C 11.59375 46.5 16.703125 59 24.90625 59 
z
M 24.296875 62.59375 
C 10.796875 62.59375 3 48.203125 3 31.203125 
C 3 14.203125 11 -0.296875 24.296875 -0.296875 
C 37.796875 -0.296875 45.59375 14.203125 45.59375 31.203125 
C 45.59375 48.203125 38 62.59375 24.296875 62.59375 
z
" id="Cochineal-Roman-48"/>
      </defs>
      <g style="fill:#222222;" transform="translate(94.227226 307.93539)scale(0.18 -0.18)">
       <use xlink:href="#Cochineal-Roman-52"/>
       <use x="48.499985" xlink:href="#Cochineal-Roman-48"/>
      </g>
     </g>
    </g>
    <g id="xtick_2">
     <g id="line2d_3">
      <g>
       <use style="fill:#222222;stroke:#222222;" x="174.957666" xlink:href="#md24c63e79d" y="292.231953"/>
      </g>
     </g>
     <g id="line2d_4">
      <g>
       <use style="fill:#222222;stroke:#222222;" x="174.957666" xlink:href="#m3a838af94f" y="25.607813"/>
      </g>
     </g>
     <g id="text_2">
      <!-- 60 -->
      <defs>
       <path d="M 13.59375 29.90625 
C 16.796875 33.40625 20.296875 33.796875 23.09375 33.796875 
C 31.90625 33.796875 35.40625 26.296875 35.40625 18 
C 35.40625 9.203125 30.90625 2.59375 24.703125 2.59375 
C 16.90625 2.59375 13.203125 14.40625 13.203125 23.203125 
C 13.203125 25.5 13.296875 27.796875 13.59375 29.90625 
z
M 25.90625 38.59375 
C 22.59375 38.59375 17.796875 37 14.40625 34.203125 
C 18.796875 51.5 33.296875 57.796875 41.5 60.40625 
C 41.5 61 41.203125 63.203125 40.296875 63.203125 
C 32.09375 61.09375 21.09375 55 14.203125 47.40625 
C 8 40.703125 4.796875 31.5 4.796875 21.5 
C 4.796875 11 12.09375 -0.59375 23.90625 -0.59375 
C 35 -0.59375 43.796875 8.90625 43.796875 19.796875 
C 43.796875 26.796875 39.59375 38.59375 25.90625 38.59375 
z
" id="Cochineal-Roman-54"/>
      </defs>
      <g style="fill:#222222;" transform="translate(166.227666 307.93539)scale(0.18 -0.18)">
       <use xlink:href="#Cochineal-Roman-54"/>
       <use x="48.499985" xlink:href="#Cochineal-Roman-48"/>
      </g>
     </g>
    </g>
    <g id="xtick_3">
     <g id="line2d_5">
      <g>
       <use style="fill:#222222;stroke:#222222;" x="246.958107" xlink:href="#md24c63e79d" y="292.231953"/>
      </g>
     </g>
     <g id="line2d_6">
      <g>
       <use style="fill:#222222;stroke:#222222;" x="246.958107" xlink:href="#m3a838af94f" y="25.607813"/>
      </g>
     </g>
     <g id="text_3">
      <!-- 80 -->
      <defs>
       <path d="M 24.203125 2.59375 
C 19 2.59375 13.59375 7.296875 13.59375 15.296875 
C 13.59375 21.5 15.90625 25.5 21.296875 28.90625 
C 21.40625 29 21.59375 29 21.703125 29 
C 22 29 22.09375 28.90625 22.296875 28.796875 
C 23.703125 28 34.796875 21.59375 34.796875 13.5 
C 34.796875 6.90625 30.59375 2.59375 24.203125 2.59375 
z
M 24.203125 59.40625 
C 30.09375 59.40625 33.796875 53.203125 33.796875 47.5 
C 33.796875 42.09375 31.09375 38.09375 27.09375 35.5 
C 26.796875 35.296875 26.796875 35.40625 26.59375 35.40625 
C 26.40625 35.40625 26.203125 35.40625 26 35.5 
C 22.296875 37.59375 15.796875 41.09375 15.796875 48.59375 
C 15.796875 54.5 19.5 59.40625 24.203125 59.40625 
z
M 24.796875 62.796875 
C 16.203125 62.796875 8.59375 55.203125 8.59375 46.90625 
C 8.59375 39.703125 14.5 34 18.59375 31.59375 
C 18.796875 31.5 18.90625 31.296875 18.59375 31.09375 
C 14.796875 28.703125 5.90625 23.59375 5.90625 15 
C 5.90625 5.5 13.296875 -0.90625 24 -0.90625 
C 33.796875 -0.90625 42.703125 6.5 42.703125 16.296875 
C 42.703125 23.296875 35.796875 29.703125 29.90625 33 
C 29.59375 33.203125 29.5 33.5 29.90625 33.59375 
C 34.40625 36.40625 40.796875 40.796875 40.796875 48.40625 
C 40.796875 57.5 33.5 62.796875 24.796875 62.796875 
z
" id="Cochineal-Roman-56"/>
      </defs>
      <g style="fill:#222222;" transform="translate(238.228107 307.93539)scale(0.18 -0.18)">
       <use xlink:href="#Cochineal-Roman-56"/>
       <use x="48.499985" xlink:href="#Cochineal-Roman-48"/>
      </g>
     </g>
    </g>
    <g id="xtick_4">
     <g id="line2d_7">
      <g>
       <use style="fill:#222222;stroke:#222222;" x="318.958547" xlink:href="#md24c63e79d" y="292.231953"/>
      </g>
     </g>
     <g id="line2d_8">
      <g>
       <use style="fill:#222222;stroke:#222222;" x="318.958547" xlink:href="#m3a838af94f" y="25.607813"/>
      </g>
     </g>
     <g id="text_4">
      <!-- 100 -->
      <defs>
       <path d="M 21.796875 11.296875 
C 21.796875 8.40625 21.703125 5.703125 21.203125 4.09375 
C 20.90625 3 16.203125 2.5 15 2.5 
C 14.59375 2 14.5 0.203125 15 -0.296875 
C 19 -0.09375 21.59375 0.203125 25.40625 0.203125 
C 29.203125 0.203125 32.296875 -0.09375 36.296875 -0.296875 
C 36.796875 0.203125 36.703125 2 36.296875 2.5 
C 35.09375 2.5 30.296875 3 30 4.09375 
C 29.5 5.703125 29.5 8.40625 29.5 11.296875 
L 29.5 51.703125 
C 29.5 57.703125 30.296875 61.09375 30.296875 61.09375 
C 30.203125 61.59375 29.90625 62.703125 29.296875 62.703125 
L 29.09375 62.703125 
C 28.796875 62.703125 20.09375 58.40625 12.09375 54.796875 
C 11.796875 54.703125 12 54.40625 12 54.203125 
C 12 53.5 12.40625 52.90625 12.90625 52.5 
C 14.5 53.09375 18.296875 54.5 19.796875 54.5 
C 21.203125 54.5 21.796875 53.59375 21.796875 50.796875 
z
" id="Cochineal-Roman-49"/>
      </defs>
      <g style="fill:#222222;" transform="translate(305.863547 307.93539)scale(0.18 -0.18)">
       <use xlink:href="#Cochineal-Roman-49"/>
       <use x="48.499985" xlink:href="#Cochineal-Roman-48"/>
       <use x="96.999969" xlink:href="#Cochineal-Roman-48"/>
      </g>
     </g>
    </g>
    <g id="xtick_5">
     <g id="line2d_9">
      <g>
       <use style="fill:#222222;stroke:#222222;" x="390.958987" xlink:href="#md24c63e79d" y="292.231953"/>
      </g>
     </g>
     <g id="line2d_10">
      <g>
       <use style="fill:#222222;stroke:#222222;" x="390.958987" xlink:href="#m3a838af94f" y="25.607813"/>
      </g>
     </g>
     <g id="text_5">
      <!-- 120 -->
      <defs>
       <path d="M 44.296875 14.59375 
C 43.90625 14.90625 42.703125 15.203125 42.296875 15.203125 
C 41.703125 15.203125 41.40625 15.09375 41.203125 14.59375 
C 39.09375 9.5 36.90625 7.09375 33 7.09375 
L 13.59375 7.09375 
C 18 12 28 23.09375 34.90625 31.59375 
C 38.296875 35.796875 40.5 40.796875 40.5 46.40625 
C 40.5 54.703125 33 62.703125 23.59375 62.703125 
C 13.296875 62.703125 6.296875 51.90625 5.59375 49.5 
C 5.59375 49.09375 6.703125 47.90625 7.5 47.90625 
C 8.703125 49.90625 13.59375 56.296875 21.40625 56.296875 
C 27.59375 56.296875 32.203125 51.203125 32.203125 44.5 
C 32.203125 39.703125 31.5 35.796875 27.5 29.90625 
C 21.796875 21.59375 12.40625 10.5 4.203125 1.40625 
C 4.203125 1 4.796875 0.203125 5.203125 0 
L 39 0 
C 39.59375 1.796875 42.296875 9.796875 44.296875 14.59375 
z
" id="Cochineal-Roman-50"/>
      </defs>
      <g style="fill:#222222;" transform="translate(377.863987 307.93539)scale(0.18 -0.18)">
       <use xlink:href="#Cochineal-Roman-49"/>
       <use x="48.499985" xlink:href="#Cochineal-Roman-50"/>
       <use x="96.999969" xlink:href="#Cochineal-Roman-48"/>
      </g>
     </g>
    </g>
    <g id="xtick_6">
     <g id="line2d_11">
      <g>
       <use style="fill:#222222;stroke:#222222;" x="462.959428" xlink:href="#md24c63e79d" y="292.231953"/>
      </g>
     </g>
     <g id="line2d_12">
      <g>
       <use style="fill:#222222;stroke:#222222;" x="462.959428" xlink:href="#m3a838af94f" y="25.607813"/>
      </g>
     </g>
     <g id="text_6">
      <!-- 140 -->
      <g style="fill:#222222;" transform="translate(449.864428 307.93539)scale(0.18 -0.18)">
       <use xlink:href="#Cochineal-Roman-49"/>
       <use x="48.499985" xlink:href="#Cochineal-Roman-52"/>
       <use x="96.999969" xlink:href="#Cochineal-Roman-48"/>
      </g>
     </g>
    </g>
    <g id="xtick_7">
     <g id="line2d_13">
      <g>
       <use style="fill:#222222;stroke:#222222;" x="534.959868" xlink:href="#md24c63e79d" y="292.231953"/>
      </g>
     </g>
     <g id="line2d_14">
      <g>
       <use style="fill:#222222;stroke:#222222;" x="534.959868" xlink:href="#m3a838af94f" y="25.607813"/>
      </g>
     </g>
     <g id="text_7">
      <!-- 160 -->
      <g style="fill:#222222;" transform="translate(521.864868 307.93539)scale(0.18 -0.18)">
       <use xlink:href="#Cochineal-Roman-49"/>
       <use x="48.499985" xlink:href="#Cochineal-Roman-54"/>
       <use x="96.999969" xlink:href="#Cochineal-Roman-48"/>
      </g>
     </g>
    </g>
    <g id="text_8">
     <!-- $j$ -->
     <defs>
      <path d="M -1.3125 -14.203125 
Q -1.3125 -11.765625 0.359375 -9.984375 
Q 2.046875 -8.203125 4.5 -8.203125 
Q 6.109375 -8.203125 7.203125 -9.203125 
Q 8.296875 -10.203125 8.296875 -11.8125 
Q 8.296875 -13.71875 7.09375 -15.25 
Q 5.90625 -16.796875 4.109375 -17.28125 
Q 5.859375 -17.921875 7.625 -17.921875 
Q 11.859375 -17.921875 14.984375 -13.984375 
Q 18.109375 -10.0625 19.390625 -5.171875 
L 28.8125 32.421875 
Q 29.5 35.296875 29.5 37.3125 
Q 29.5 41.609375 26.515625 41.609375 
Q 22.125 41.609375 18.828125 37.625 
Q 15.53125 33.640625 13.484375 28.421875 
Q 13.28125 27.78125 12.703125 27.78125 
L 11.53125 27.78125 
Q 10.6875 27.78125 10.6875 28.71875 
L 10.6875 29 
Q 12.9375 35.015625 17.078125 39.59375 
Q 21.234375 44.1875 26.703125 44.1875 
Q 30.859375 44.1875 33.515625 41.59375 
Q 36.1875 39.015625 36.1875 35.015625 
Q 36.1875 33.59375 35.890625 32.171875 
L 26.421875 -5.8125 
Q 25.390625 -9.859375 22.5 -13.234375 
Q 19.625 -16.609375 15.625 -18.5625 
Q 11.625 -20.515625 7.421875 -20.515625 
Q 4.046875 -20.515625 1.359375 -18.890625 
Q -1.3125 -17.28125 -1.3125 -14.203125 
z
M 30.328125 60.59375 
Q 30.328125 62.796875 32.03125 64.453125 
Q 33.734375 66.109375 35.890625 66.109375 
Q 37.59375 66.109375 38.6875 65.0625 
Q 39.796875 64.015625 39.796875 62.40625 
Q 39.796875 60.15625 38.015625 58.46875 
Q 36.234375 56.78125 34.078125 56.78125 
Q 32.46875 56.78125 31.390625 57.90625 
Q 30.328125 59.03125 30.328125 60.59375 
z
" id="Cmmi10-106"/>
     </defs>
     <g transform="translate(314.338547 330.827578)scale(0.22 -0.22)">
      <use transform="translate(0 0.890625)" xlink:href="#Cmmi10-106"/>
     </g>
    </g>
   </g>
   <g id="matplotlib.axis_2">
    <g id="ytick_1">
     <g id="line2d_15">
      <defs>
       <path d="M 0 0 
L 8 0 
" id="mffcc63d242" style="stroke:#222222;"/>
      </defs>
      <g>
       <use style="fill:#222222;stroke:#222222;" x="81.357094" xlink:href="#mffcc63d242" y="292.231953"/>
      </g>
     </g>
     <g id="line2d_16">
      <defs>
       <path d="M 0 0 
L -8 0 
" id="mf526791e86" style="stroke:#222222;"/>
      </defs>
      <g>
       <use style="fill:#222222;stroke:#222222;" x="556.56" xlink:href="#mf526791e86" y="292.231953"/>
      </g>
     </g>
     <g id="text_9">
      <!-- −20 -->
      <defs>
       <path d="M 51.40625 21.296875 
C 52.796875 22 54 26.796875 52.59375 26.796875 
L 8.796875 26.796875 
C 7.40625 26.296875 6 21.296875 7.203125 21.296875 
z
" id="Cochineal-Roman-8722"/>
      </defs>
      <g style="fill:#222222;" transform="translate(49.670219 298.333671)scale(0.18 -0.18)">
       <use xlink:href="#Cochineal-Roman-8722"/>
       <use x="59.599991" xlink:href="#Cochineal-Roman-50"/>
       <use x="108.099976" xlink:href="#Cochineal-Roman-48"/>
      </g>
     </g>
    </g>
    <g id="ytick_2">
     <g id="line2d_17">
      <g>
       <use style="fill:#222222;stroke:#222222;" x="81.357094" xlink:href="#mffcc63d242" y="225.575918"/>
      </g>
     </g>
     <g id="line2d_18">
      <g>
       <use style="fill:#222222;stroke:#222222;" x="556.56" xlink:href="#mf526791e86" y="225.575918"/>
      </g>
     </g>
     <g id="text_10">
      <!-- −10 -->
      <g style="fill:#222222;" transform="translate(49.670219 231.677636)scale(0.18 -0.18)">
       <use xlink:href="#Cochineal-Roman-8722"/>
       <use x="59.599991" xlink:href="#Cochineal-Roman-49"/>
       <use x="108.099976" xlink:href="#Cochineal-Roman-48"/>
      </g>
     </g>
    </g>
    <g id="ytick_3">
     <g id="line2d_19">
      <g>
       <use style="fill:#222222;stroke:#222222;" x="81.357094" xlink:href="#mffcc63d242" y="158.919883"/>
      </g>
     </g>
     <g id="line2d_20">
      <g>
       <use style="fill:#222222;stroke:#222222;" x="556.56" xlink:href="#mf526791e86" y="158.919883"/>
      </g>
     </g>
     <g id="text_11">
      <!-- 0 -->
      <g style="fill:#222222;" transform="translate(69.127094 165.021601)scale(0.18 -0.18)">
       <use xlink:href="#Cochineal-Roman-48"/>
      </g>
     </g>
    </g>
    <g id="ytick_4">
     <g id="line2d_21">
      <g>
       <use style="fill:#222222;stroke:#222222;" x="81.357094" xlink:href="#mffcc63d242" y="92.263848"/>
      </g>
     </g>
     <g id="line2d_22">
      <g>
       <use style="fill:#222222;stroke:#222222;" x="556.56" xlink:href="#mf526791e86" y="92.263848"/>
      </g>
     </g>
     <g id="text_12">
      <!-- 10 -->
      <g style="fill:#222222;" transform="translate(60.397094 98.365566)scale(0.18 -0.18)">
       <use xlink:href="#Cochineal-Roman-49"/>
       <use x="48.499985" xlink:href="#Cochineal-Roman-48"/>
      </g>
     </g>
    </g>
    <g id="ytick_5">
     <g id="line2d_23">
      <g>
       <use style="fill:#222222;stroke:#222222;" x="81.357094" xlink:href="#mffcc63d242" y="25.607813"/>
      </g>
     </g>
     <g id="line2d_24">
      <g>
       <use style="fill:#222222;stroke:#222222;" x="556.56" xlink:href="#mf526791e86" y="25.607813"/>
      </g>
     </g>
     <g id="text_13">
      <!-- 20 -->
      <g style="fill:#222222;" transform="translate(60.397094 31.709531)scale(0.18 -0.18)">
       <use xlink:href="#Cochineal-Roman-50"/>
       <use x="48.499985" xlink:href="#Cochineal-Roman-48"/>
      </g>
     </g>
    </g>
    <g id="text_14">
     <!-- $f(j) \, \times \, 10^3$ -->
     <defs>
      <path d="M 9.71875 -16.5 
Q 11.578125 -17.921875 14.203125 -17.921875 
Q 17.78125 -17.921875 20.015625 -10.015625 
Q 20.953125 -6.203125 25.09375 15.09375 
L 29.6875 39.59375 
L 21.09375 39.59375 
Q 20.125 39.59375 20.125 40.921875 
Q 20.515625 43.109375 21.390625 43.109375 
L 30.328125 43.109375 
L 31.5 49.609375 
Q 32.078125 52.640625 32.5625 54.8125 
Q 33.0625 56.984375 33.625 58.828125 
Q 34.1875 60.6875 35.296875 62.984375 
Q 37.015625 66.265625 39.921875 68.390625 
Q 42.828125 70.515625 46.1875 70.515625 
Q 48.390625 70.515625 50.46875 69.703125 
Q 52.546875 68.890625 53.859375 67.28125 
Q 55.171875 65.671875 55.171875 63.484375 
Q 55.171875 60.9375 53.484375 59.046875 
Q 51.8125 57.171875 49.421875 57.171875 
Q 47.796875 57.171875 46.65625 58.171875 
Q 45.515625 59.1875 45.515625 60.796875 
Q 45.515625 62.984375 47 64.625 
Q 48.484375 66.265625 50.6875 66.5 
Q 48.828125 67.921875 46.09375 67.921875 
Q 44.578125 67.921875 43.234375 66.5 
Q 41.890625 65.09375 41.5 63.484375 
Q 40.875 60.9375 38.71875 49.703125 
L 37.5 43.109375 
L 47.796875 43.109375 
Q 48.78125 43.109375 48.78125 41.796875 
Q 48.734375 41.546875 48.578125 40.9375 
Q 48.4375 40.328125 48.171875 39.953125 
Q 47.90625 39.59375 47.515625 39.59375 
L 36.8125 39.59375 
L 32.171875 15.1875 
Q 31.296875 9.859375 30.140625 4.359375 
Q 29 -1.125 26.921875 -6.90625 
Q 24.859375 -12.703125 21.625 -16.609375 
Q 18.40625 -20.515625 14.015625 -20.515625 
Q 10.640625 -20.515625 7.984375 -18.578125 
Q 5.328125 -16.65625 5.328125 -13.484375 
Q 5.328125 -10.9375 6.953125 -9.046875 
Q 8.59375 -7.171875 11.078125 -7.171875 
Q 12.75 -7.171875 13.859375 -8.171875 
Q 14.984375 -9.1875 14.984375 -10.796875 
Q 14.984375 -12.9375 13.390625 -14.71875 
Q 11.8125 -16.5 9.71875 -16.5 
z
" id="Cmmi10-102"/>
      <path d="M 31 -24.8125 
Q 25.4375 -20.40625 21.40625 -14.71875 
Q 17.390625 -9.03125 14.8125 -2.578125 
Q 12.25 3.859375 10.984375 10.890625 
Q 9.71875 17.921875 9.71875 25 
Q 9.71875 32.171875 10.984375 39.203125 
Q 12.25 46.234375 14.859375 52.734375 
Q 17.484375 59.234375 21.53125 64.890625 
Q 25.59375 70.5625 31 74.8125 
Q 31 75 31.5 75 
L 32.421875 75 
Q 32.71875 75 32.953125 74.734375 
Q 33.203125 74.46875 33.203125 74.125 
Q 33.203125 73.6875 33.015625 73.484375 
Q 28.125 68.703125 24.875 63.234375 
Q 21.625 57.765625 19.640625 51.578125 
Q 17.671875 45.40625 16.796875 38.78125 
Q 15.921875 32.171875 15.921875 25 
Q 15.921875 -6.78125 32.90625 -23.296875 
Q 33.203125 -23.578125 33.203125 -24.125 
Q 33.203125 -24.359375 32.9375 -24.671875 
Q 32.671875 -25 32.421875 -25 
L 31.5 -25 
Q 31 -25 31 -24.8125 
z
" id="Cmr10-40"/>
      <path d="M 6.5 -25 
Q 5.609375 -25 5.609375 -24.125 
Q 5.609375 -23.6875 5.8125 -23.484375 
Q 22.90625 -6.78125 22.90625 25 
Q 22.90625 56.78125 6 73.296875 
Q 5.609375 73.53125 5.609375 74.125 
Q 5.609375 74.46875 5.875 74.734375 
Q 6.15625 75 6.5 75 
L 7.421875 75 
Q 7.71875 75 7.90625 74.8125 
Q 15.09375 69.140625 19.875 61.03125 
Q 24.65625 52.9375 26.875 43.75 
Q 29.109375 34.578125 29.109375 25 
Q 29.109375 17.921875 27.90625 11.0625 
Q 26.703125 4.203125 24.09375 -2.453125 
Q 21.484375 -9.125 17.484375 -14.765625 
Q 13.484375 -20.40625 7.90625 -24.8125 
Q 7.71875 -25 7.421875 -25 
z
" id="Cmr10-41"/>
      <path d="M 14.703125 2.875 
Q 14.703125 3.65625 15.1875 4.296875 
L 35.984375 25 
L 15.1875 45.796875 
Q 14.703125 46.296875 14.703125 47.125 
Q 14.703125 47.859375 15.28125 48.484375 
Q 15.875 49.125 16.703125 49.125 
Q 17.390625 49.125 18.21875 48.484375 
L 38.921875 27.78125 
L 59.515625 48.484375 
Q 60.359375 49.125 60.984375 49.125 
Q 61.8125 49.125 62.390625 48.53125 
Q 62.984375 47.953125 62.984375 47.125 
Q 62.984375 46.296875 62.5 45.796875 
L 41.703125 25 
L 62.5 4.296875 
Q 62.984375 3.65625 62.984375 2.875 
Q 62.984375 2.046875 62.390625 1.453125 
Q 61.8125 0.875 60.984375 0.875 
Q 60.25 0.875 59.515625 1.609375 
L 38.921875 22.21875 
L 18.21875 1.609375 
Q 17.484375 0.875 16.703125 0.875 
Q 15.875 0.875 15.28125 1.515625 
Q 14.703125 2.15625 14.703125 2.875 
z
" id="Cmsy10-163"/>
      <path d="M 9.28125 0 
L 9.28125 3.515625 
Q 21.78125 3.515625 21.78125 6.6875 
L 21.78125 59.1875 
Q 16.609375 56.6875 8.6875 56.6875 
L 8.6875 60.203125 
Q 20.953125 60.203125 27.203125 66.609375 
L 28.609375 66.609375 
Q 28.953125 66.609375 29.265625 66.328125 
Q 29.59375 66.0625 29.59375 65.71875 
L 29.59375 6.6875 
Q 29.59375 3.515625 42.09375 3.515625 
L 42.09375 0 
z
" id="Cmr10-49"/>
      <path d="M 25 -2.203125 
Q 12.75 -2.203125 8.328125 7.875 
Q 3.90625 17.96875 3.90625 31.890625 
Q 3.90625 40.578125 5.484375 48.234375 
Q 7.078125 55.90625 11.78125 61.25 
Q 16.5 66.609375 25 66.609375 
Q 31.59375 66.609375 35.78125 63.375 
Q 39.984375 60.15625 42.1875 55.046875 
Q 44.390625 49.953125 45.1875 44.109375 
Q 46 38.28125 46 31.890625 
Q 46 23.296875 44.40625 15.796875 
Q 42.828125 8.296875 38.1875 3.046875 
Q 33.546875 -2.203125 25 -2.203125 
z
M 25 0.390625 
Q 30.5625 0.390625 33.296875 6.09375 
Q 36.03125 11.8125 36.671875 18.75 
Q 37.3125 25.6875 37.3125 33.5 
Q 37.3125 41.015625 36.671875 47.359375 
Q 36.03125 53.71875 33.3125 58.859375 
Q 30.609375 64.015625 25 64.015625 
Q 19.34375 64.015625 16.609375 58.828125 
Q 13.875 53.65625 13.234375 47.328125 
Q 12.59375 41.015625 12.59375 33.5 
Q 12.59375 27.9375 12.859375 23 
Q 13.140625 18.0625 14.3125 12.8125 
Q 15.484375 7.5625 18.09375 3.96875 
Q 20.703125 0.390625 25 0.390625 
z
" id="Cmr10-48"/>
      <path d="M 9.515625 7.71875 
Q 11.859375 4.296875 15.8125 2.640625 
Q 19.78125 0.984375 24.3125 0.984375 
Q 30.125 0.984375 32.5625 5.9375 
Q 35.015625 10.890625 35.015625 17.1875 
Q 35.015625 20.015625 34.5 22.84375 
Q 33.984375 25.6875 32.765625 28.125 
Q 31.546875 30.5625 29.421875 32.03125 
Q 27.296875 33.5 24.21875 33.5 
L 17.578125 33.5 
Q 16.703125 33.5 16.703125 34.421875 
L 16.703125 35.296875 
Q 16.703125 36.078125 17.578125 36.078125 
L 23.09375 36.53125 
Q 26.609375 36.53125 28.921875 39.15625 
Q 31.25 41.796875 32.328125 45.578125 
Q 33.40625 49.359375 33.40625 52.78125 
Q 33.40625 57.5625 31.15625 60.640625 
Q 28.90625 63.71875 24.3125 63.71875 
Q 20.515625 63.71875 17.046875 62.28125 
Q 13.578125 60.84375 11.53125 57.90625 
Q 11.71875 57.953125 11.859375 57.984375 
Q 12.015625 58.015625 12.203125 58.015625 
Q 14.453125 58.015625 15.96875 56.453125 
Q 17.484375 54.890625 17.484375 52.6875 
Q 17.484375 50.53125 15.96875 48.96875 
Q 14.453125 47.40625 12.203125 47.40625 
Q 10.015625 47.40625 8.453125 48.96875 
Q 6.890625 50.53125 6.890625 52.6875 
Q 6.890625 56.984375 9.46875 60.15625 
Q 12.0625 63.328125 16.140625 64.96875 
Q 20.21875 66.609375 24.3125 66.609375 
Q 27.34375 66.609375 30.703125 65.703125 
Q 34.078125 64.796875 36.8125 63.109375 
Q 39.546875 61.421875 41.28125 58.78125 
Q 43.015625 56.15625 43.015625 52.78125 
Q 43.015625 48.578125 41.140625 45.015625 
Q 39.265625 41.453125 35.984375 38.859375 
Q 32.71875 36.28125 28.8125 35.015625 
Q 33.15625 34.1875 37.0625 31.734375 
Q 40.96875 29.296875 43.328125 25.484375 
Q 45.703125 21.6875 45.703125 17.28125 
Q 45.703125 11.765625 42.671875 7.296875 
Q 39.65625 2.828125 34.71875 0.3125 
Q 29.78125 -2.203125 24.3125 -2.203125 
Q 19.625 -2.203125 14.90625 -0.40625 
Q 10.203125 1.375 7.203125 4.9375 
Q 4.203125 8.5 4.203125 13.484375 
Q 4.203125 15.96875 5.859375 17.625 
Q 7.515625 19.28125 10.015625 19.28125 
Q 11.625 19.28125 12.96875 18.53125 
Q 14.3125 17.78125 15.0625 16.40625 
Q 15.828125 15.046875 15.828125 13.484375 
Q 15.828125 11.03125 14.109375 9.375 
Q 12.40625 7.71875 10.015625 7.71875 
z
" id="Cmr10-51"/>
     </defs>
     <g transform="translate(40.170219 209.079883)rotate(-90)scale(0.22 -0.22)">
      <use transform="translate(0 0.109375)" xlink:href="#Cmmi10-102"/>
      <use transform="translate(48.876953 0.109375)" xlink:href="#Cmr10-40"/>
      <use transform="translate(87.695312 0.109375)" xlink:href="#Cmmi10-106"/>
      <use transform="translate(128.808594 0.109375)" xlink:href="#Cmr10-41"/>
      <use transform="translate(199.818001 0.109375)" xlink:href="#Cmsy10-163"/>
      <use transform="translate(309.694596 0.109375)" xlink:href="#Cmr10-49"/>
      <use transform="translate(359.694596 0.109375)" xlink:href="#Cmr10-48"/>
      <use transform="translate(414.158736 38.373438)scale(0.7)" xlink:href="#Cmr10-51"/>
     </g>
    </g>
   </g>
   <g id="line2d_25">
    <path clip-path="url(#p74ae42420a)" d="M 102.957226 158.726572 
L 106.557248 158.126249 
L 110.15727 156.614189 
L 113.757292 153.454695 
L 117.357314 147.728445 
L 120.957336 138.5093 
L 124.557358 125.155456 
L 128.15738 107.665463 
L 131.757402 87.003787 
L 135.357424 65.274773 
L 138.957446 45.634011 
L 142.557468 31.878367 
L 146.15749 27.741656 
L 149.757512 36.020024 
L 153.357534 57.729022 
L 156.957556 91.524708 
L 160.557578 133.586824 
L 164.1576 178.065184 
L 167.757622 218.052651 
L 171.357644 246.905945 
L 174.957666 259.629446 
L 178.557688 253.999424 
L 182.15771 231.150825 
L 185.757732 195.466848 
L 189.357754 153.773629 
L 192.957776 114.006441 
L 196.557798 83.637807 
L 200.15782 68.210809 
L 203.757842 70.291177 
L 207.357864 89.049495 
L 210.957886 120.538097 
L 214.557908 158.573357 
L 218.15793 196.009761 
L 221.757952 226.123956 
L 225.357974 243.825823 
L 228.957996 246.473408 
L 232.558018 234.169817 
L 236.15804 209.536021 
L 239.758063 177.05711 
L 243.358085 142.170374 
L 246.958107 110.291182 
L 250.558129 85.957624 
L 254.158151 72.226817 
L 257.758173 70.38983 
L 261.358195 80.004499 
L 264.958217 99.189616 
L 268.558239 125.088786 
L 272.158261 154.400303 
L 275.758283 183.87831 
L 279.358305 210.734282 
L 282.958327 232.898775 
L 286.558349 249.134362 
L 290.158371 259.015954 
L 293.758393 262.811419 
L 297.358415 261.302511 
L 300.958437 255.585099 
L 304.558459 246.880648 
L 308.158481 236.380813 
L 311.758503 225.136313 
L 315.358525 213.991897 
L 318.958547 203.562346 
L 322.558569 194.24037 
L 326.158591 186.225791 
L 329.758613 179.565936 
L 333.358635 174.198911 
L 336.958657 169.993862 
L 340.558679 166.784648 
L 344.158701 164.395442 
L 347.758723 162.658286 
L 351.358745 161.423602 
L 354.958767 160.565126 
L 358.558789 159.980849 
L 362.158811 159.591411 
L 365.758833 159.337102 
L 369.358855 159.174352 
L 372.958877 159.07225 
L 376.558899 159.009448 
L 380.158921 158.971569 
L 383.758943 158.949163 
L 387.358965 158.936164 
L 390.958987 158.928769 
L 394.559009 158.924642 
L 398.159031 158.922384 
L 401.759053 158.921172 
L 405.359075 158.920535 
L 408.959097 158.920206 
L 412.559119 158.92004 
L 416.159141 158.919957 
L 419.759163 158.919918 
L 423.359185 158.919899 
L 426.959207 158.91989 
L 430.559229 158.919886 
L 434.159251 158.919884 
L 437.759273 158.919883 
L 441.359295 158.919883 
L 444.959317 158.919883 
L 448.559339 158.919883 
L 452.159362 158.919883 
L 455.759384 158.919883 
L 459.359406 158.919883 
L 462.959428 158.919883 
L 466.55945 158.919883 
L 470.159472 158.919883 
L 473.759494 158.919883 
L 477.359516 158.919883 
L 480.959538 158.919883 
L 484.55956 158.919883 
L 488.159582 158.919883 
L 491.759604 158.919883 
L 495.359626 158.919883 
L 498.959648 158.919883 
L 502.55967 158.919883 
L 506.159692 158.919883 
L 509.759714 158.919883 
L 513.359736 158.919883 
L 516.959758 158.919883 
L 520.55978 158.919883 
L 524.159802 158.919883 
L 527.759824 158.919883 
L 531.359846 158.919883 
L 534.959868 158.919883 
" style="fill:none;stroke:#000000;stroke-linecap:square;stroke-width:2;"/>
    <defs>
     <path d="M 0 2 
C 0.530406 2 1.03916 1.789267 1.414214 1.414214 
C 1.789267 1.03916 2 0.530406 2 0 
C 2 -0.530406 1.789267 -1.03916 1.414214 -1.414214 
C 1.03916 -1.789267 0.530406 -2 0 -2 
C -0.530406 -2 -1.03916 -1.789267 -1.414214 -1.414214 
C -1.789267 -1.03916 -2 -0.530406 -2 0 
C -2 0.530406 -1.789267 1.03916 -1.414214 1.414214 
C -1.03916 1.789267 -0.530406 2 0 2 
z
" id="m4ac1dd0f73"/>
    </defs>
    <g clip-path="url(#p74ae42420a)">
     <use x="102.957226" xlink:href="#m4ac1dd0f73" y="158.726572"/>
     <use x="106.557248" xlink:href="#m4ac1dd0f73" y="158.126249"/>
     <use x="110.15727" xlink:href="#m4ac1dd0f73" y="156.614189"/>
     <use x="113.757292" xlink:href="#m4ac1dd0f73" y="153.454695"/>
     <use x="117.357314" xlink:href="#m4ac1dd0f73" y="147.728445"/>
     <use x="120.957336" xlink:href="#m4ac1dd0f73" y="138.5093"/>
     <use x="124.557358" xlink:href="#m4ac1dd0f73" y="125.155456"/>
     <use x="128.15738" xlink:href="#m4ac1dd0f73" y="107.665463"/>
     <use x="131.757402" xlink:href="#m4ac1dd0f73" y="87.003787"/>
     <use x="135.357424" xlink:href="#m4ac1dd0f73" y="65.274773"/>
     <use x="138.957446" xlink:href="#m4ac1dd0f73" y="45.634011"/>
     <use x="142.557468" xlink:href="#m4ac1dd0f73" y="31.878367"/>
     <use x="146.15749" xlink:href="#m4ac1dd0f73" y="27.741656"/>
     <use x="149.757512" xlink:href="#m4ac1dd0f73" y="36.020024"/>
     <use x="153.357534" xlink:href="#m4ac1dd0f73" y="57.729022"/>
     <use x="156.957556" xlink:href="#m4ac1dd0f73" y="91.524708"/>
     <use x="160.557578" xlink:href="#m4ac1dd0f73" y="133.586824"/>
     <use x="164.1576" xlink:href="#m4ac1dd0f73" y="178.065184"/>
     <use x="167.757622" xlink:href="#m4ac1dd0f73" y="218.052651"/>
     <use x="171.357644" xlink:href="#m4ac1dd0f73" y="246.905945"/>
     <use x="174.957666" xlink:href="#m4ac1dd0f73" y="259.629446"/>
     <use x="178.557688" xlink:href="#m4ac1dd0f73" y="253.999424"/>
     <use x="182.15771" xlink:href="#m4ac1dd0f73" y="231.150825"/>
     <use x="185.757732" xlink:href="#m4ac1dd0f73" y="195.466848"/>
     <use x="189.357754" xlink:href="#m4ac1dd0f73" y="153.773629"/>
     <use x="192.957776" xlink:href="#m4ac1dd0f73" y="114.006441"/>
     <use x="196.557798" xlink:href="#m4ac1dd0f73" y="83.637807"/>
     <use x="200.15782" xlink:href="#m4ac1dd0f73" y="68.210809"/>
     <use x="203.757842" xlink:href="#m4ac1dd0f73" y="70.291177"/>
     <use x="207.357864" xlink:href="#m4ac1dd0f73" y="89.049495"/>
     <use x="210.957886" xlink:href="#m4ac1dd0f73" y="120.538097"/>
     <use x="214.557908" xlink:href="#m4ac1dd0f73" y="158.573357"/>
     <use x="218.15793" xlink:href="#m4ac1dd0f73" y="196.009761"/>
     <use x="221.757952" xlink:href="#m4ac1dd0f73" y="226.123956"/>
     <use x="225.357974" xlink:href="#m4ac1dd0f73" y="243.825823"/>
     <use x="228.957996" xlink:href="#m4ac1dd0f73" y="246.473408"/>
     <use x="232.558018" xlink:href="#m4ac1dd0f73" y="234.169817"/>
     <use x="236.15804" xlink:href="#m4ac1dd0f73" y="209.536021"/>
     <use x="239.758063" xlink:href="#m4ac1dd0f73" y="177.05711"/>
     <use x="243.358085" xlink:href="#m4ac1dd0f73" y="142.170374"/>
     <use x="246.958107" xlink:href="#m4ac1dd0f73" y="110.291182"/>
     <use x="250.558129" xlink:href="#m4ac1dd0f73" y="85.957624"/>
     <use x="254.158151" xlink:href="#m4ac1dd0f73" y="72.226817"/>
     <use x="257.758173" xlink:href="#m4ac1dd0f73" y="70.38983"/>
     <use x="261.358195" xlink:href="#m4ac1dd0f73" y="80.004499"/>
     <use x="264.958217" xlink:href="#m4ac1dd0f73" y="99.189616"/>
     <use x="268.558239" xlink:href="#m4ac1dd0f73" y="125.088786"/>
     <use x="272.158261" xlink:href="#m4ac1dd0f73" y="154.400303"/>
     <use x="275.758283" xlink:href="#m4ac1dd0f73" y="183.87831"/>
     <use x="279.358305" xlink:href="#m4ac1dd0f73" y="210.734282"/>
     <use x="282.958327" xlink:href="#m4ac1dd0f73" y="232.898775"/>
     <use x="286.558349" xlink:href="#m4ac1dd0f73" y="249.134362"/>
     <use x="290.158371" xlink:href="#m4ac1dd0f73" y="259.015954"/>
     <use x="293.758393" xlink:href="#m4ac1dd0f73" y="262.811419"/>
     <use x="297.358415" xlink:href="#m4ac1dd0f73" y="261.302511"/>
     <use x="300.958437" xlink:href="#m4ac1dd0f73" y="255.585099"/>
     <use x="304.558459" xlink:href="#m4ac1dd0f73" y="246.880648"/>
     <use x="308.158481" xlink:href="#m4ac1dd0f73" y="236.380813"/>
     <use x="311.758503" xlink:href="#m4ac1dd0f73" y="225.136313"/>
     <use x="315.358525" xlink:href="#m4ac1dd0f73" y="213.991897"/>
     <use x="318.958547" xlink:href="#m4ac1dd0f73" y="203.562346"/>
     <use x="322.558569" xlink:href="#m4ac1dd0f73" y="194.24037"/>
     <use x="326.158591" xlink:href="#m4ac1dd0f73" y="186.225791"/>
     <use x="329.758613" xlink:href="#m4ac1dd0f73" y="179.565936"/>
     <use x="333.358635" xlink:href="#m4ac1dd0f73" y="174.198911"/>
     <use x="336.958657" xlink:href="#m4ac1dd0f73" y="169.993862"/>
     <use x="340.558679" xlink:href="#m4ac1dd0f73" y="166.784648"/>
     <use x="344.158701" xlink:href="#m4ac1dd0f73" y="164.395442"/>
     <use x="347.758723" xlink:href="#m4ac1dd0f73" y="162.658286"/>
     <use x="351.358745" xlink:href="#m4ac1dd0f73" y="161.423602"/>
     <use x="354.958767" xlink:href="#m4ac1dd0f73" y="160.565126"/>
     <use x="358.558789" xlink:href="#m4ac1dd0f73" y="159.980849"/>
     <use x="362.158811" xlink:href="#m4ac1dd0f73" y="159.591411"/>
     <use x="365.758833" xlink:href="#m4ac1dd0f73" y="159.337102"/>
     <use x="369.358855" xlink:href="#m4ac1dd0f73" y="159.174352"/>
     <use x="372.958877" xlink:href="#m4ac1dd0f73" y="159.07225"/>
     <use x="376.558899" xlink:href="#m4ac1dd0f73" y="159.009448"/>
     <use x="380.158921" xlink:href="#m4ac1dd0f73" y="158.971569"/>
     <use x="383.758943" xlink:href="#m4ac1dd0f73" y="158.949163"/>
     <use x="387.358965" xlink:href="#m4ac1dd0f73" y="158.936164"/>
     <use x="390.958987" xlink:href="#m4ac1dd0f73" y="158.928769"/>
     <use x="394.559009" xlink:href="#m4ac1dd0f73" y="158.924642"/>
     <use x="398.159031" xlink:href="#m4ac1dd0f73" y="158.922384"/>
     <use x="401.759053" xlink:href="#m4ac1dd0f73" y="158.921172"/>
     <use x="405.359075" xlink:href="#m4ac1dd0f73" y="158.920535"/>
     <use x="408.959097" xlink:href="#m4ac1dd0f73" y="158.920206"/>
     <use x="412.559119" xlink:href="#m4ac1dd0f73" y="158.92004"/>
     <use x="416.159141" xlink:href="#m4ac1dd0f73" y="158.919957"/>
     <use x="419.759163" xlink:href="#m4ac1dd0f73" y="158.919918"/>
     <use x="423.359185" xlink:href="#m4ac1dd0f73" y="158.919899"/>
     <use x="426.959207" xlink:href="#m4ac1dd0f73" y="158.91989"/>
     <use x="430.559229" xlink:href="#m4ac1dd0f73" y="158.919886"/>
     <use x="434.159251" xlink:href="#m4ac1dd0f73" y="158.919884"/>
     <use x="437.759273" xlink:href="#m4ac1dd0f73" y="158.919883"/>
     <use x="441.359295" xlink:href="#m4ac1dd0f73" y="158.919883"/>
     <use x="444.959317" xlink:href="#m4ac1dd0f73" y="158.919883"/>
     <use x="448.559339" xlink:href="#m4ac1dd0f73" y="158.919883"/>
     <use x="452.159362" xlink:href="#m4ac1dd0f73" y="158.919883"/>
     <use x="455.759384" xlink:href="#m4ac1dd0f73" y="158.919883"/>
     <use x="459.359406" xlink:href="#m4ac1dd0f73" y="158.919883"/>
     <use x="462.959428" xlink:href="#m4ac1dd0f73" y="158.919883"/>
     <use x="466.55945" xlink:href="#m4ac1dd0f73" y="158.919883"/>
     <use x="470.159472" xlink:href="#m4ac1dd0f73" y="158.919883"/>
     <use x="473.759494" xlink:href="#m4ac1dd0f73" y="158.919883"/>
     <use x="477.359516" xlink:href="#m4ac1dd0f73" y="158.919883"/>
     <use x="480.959538" xlink:href="#m4ac1dd0f73" y="158.919883"/>
     <use x="484.55956" xlink:href="#m4ac1dd0f73" y="158.919883"/>
     <use x="488.159582" xlink:href="#m4ac1dd0f73" y="158.919883"/>
     <use x="491.759604" xlink:href="#m4ac1dd0f73" y="158.919883"/>
     <use x="495.359626" xlink:href="#m4ac1dd0f73" y="158.919883"/>
     <use x="498.959648" xlink:href="#m4ac1dd0f73" y="158.919883"/>
     <use x="502.55967" xlink:href="#m4ac1dd0f73" y="158.919883"/>
     <use x="506.159692" xlink:href="#m4ac1dd0f73" y="158.919883"/>
     <use x="509.759714" xlink:href="#m4ac1dd0f73" y="158.919883"/>
     <use x="513.359736" xlink:href="#m4ac1dd0f73" y="158.919883"/>
     <use x="516.959758" xlink:href="#m4ac1dd0f73" y="158.919883"/>
     <use x="520.55978" xlink:href="#m4ac1dd0f73" y="158.919883"/>
     <use x="524.159802" xlink:href="#m4ac1dd0f73" y="158.919883"/>
     <use x="527.759824" xlink:href="#m4ac1dd0f73" y="158.919883"/>
     <use x="531.359846" xlink:href="#m4ac1dd0f73" y="158.919883"/>
     <use x="534.959868" xlink:href="#m4ac1dd0f73" y="158.919883"/>
    </g>
   </g>
   <g id="line2d_26">
    <path clip-path="url(#p74ae42420a)" d="M 135.357424 292.231953 
L 135.357424 25.607813 
" style="fill:none;stroke:#666666;stroke-dasharray:3.7,1.6;stroke-dashoffset:0;"/>
    <defs>
     <path d="M 0 2 
C 0.530406 2 1.03916 1.789267 1.414214 1.414214 
C 1.789267 1.03916 2 0.530406 2 0 
C 2 -0.530406 1.789267 -1.03916 1.414214 -1.414214 
C 1.03916 -1.789267 0.530406 -2 0 -2 
C -0.530406 -2 -1.03916 -1.789267 -1.414214 -1.414214 
C -1.789267 -1.03916 -2 -0.530406 -2 0 
C -2 0.530406 -1.789267 1.03916 -1.414214 1.414214 
C -1.03916 1.789267 -0.530406 2 0 2 
z
" id="mb3e8a55c9d"/>
    </defs>
    <g clip-path="url(#p74ae42420a)">
     <use style="fill:#666666;" x="135.357424" xlink:href="#mb3e8a55c9d" y="292.231953"/>
     <use style="fill:#666666;" x="135.357424" xlink:href="#mb3e8a55c9d" y="25.607813"/>
    </g>
   </g>
   <g id="line2d_27">
    <path clip-path="url(#p74ae42420a)" d="M 311.758503 292.231953 
L 311.758503 25.607813 
" style="fill:none;stroke:#666666;stroke-dasharray:3.7,1.6;stroke-dashoffset:0;"/>
    <g clip-path="url(#p74ae42420a)">
     <use style="fill:#666666;" x="311.758503" xlink:href="#mb3e8a55c9d" y="292.231953"/>
     <use style="fill:#666666;" x="311.758503" xlink:href="#mb3e8a55c9d" y="25.607813"/>
    </g>
   </g>
   <g id="patch_3">
    <path d="M 81.357094 292.231953 
L 81.357094 25.607813 
" style="fill:none;stroke:#333333;stroke-linecap:square;stroke-linejoin:miter;stroke-width:0.8;"/>
   </g>
   <g id="patch_4">
    <path d="M 556.56 292.231953 
L 556.56 25.607813 
" style="fill:none;stroke:#333333;stroke-linecap:square;stroke-linejoin:miter;stroke-width:0.8;"/>
   </g>
   <g id="patch_5">
    <path d="M 81.357094 292.231953 
L 556.56 292.231953 
" style="fill:none;stroke:#333333;stroke-linecap:square;stroke-linejoin:miter;stroke-width:0.8;"/>
   </g>
   <g id="patch_6">
    <path d="M 81.357094 25.607813 
L 556.56 25.607813 
" style="fill:none;stroke:#333333;stroke-linecap:square;stroke-linejoin:miter;stroke-width:0.8;"/>
   </g>
  </g>
 </g>
 <defs>
  <clipPath id="p74ae42420a">
   <rect height="266.62414" width="475.202906" x="81.357094" y="25.607813"/>
  </clipPath>
 </defs>
</svg>
